<svg width="21" height="16" viewBox="0 0 21 16" fill="none" xmlns="http://www.w3.org/2000/svg">
<mask id="mask0_1_12" style="mask-type:alpha" maskUnits="userSpaceOnUse" x="1" y="2" width="19" height="13">
<path d="M16.3259 7.00008C15.6961 4.50018 13.3867 2.49988 10.4475 2.49988C8.1381 2.49988 6.2486 3.70008 5.1989 5.49988C2.7845 5.79998 1 7.69998 1 9.99988C1 12.5002 3.0995 14.4998 5.7237 14.4998H16.0111C18.2155 14.4998 20 12.8001 20 10.7002C19.895 8.79998 18.2155 7.20008 16.3259 7.00008ZM15.6961 12.5002H5.1989C3.4144 12.5002 2.9945 11.1001 3.0995 9.49998C3.2044 8.19998 4.9889 7.00008 6.2486 7.49998C6.7734 5.79998 8.453 4.50018 10.4475 4.50018C12.8619 4.50018 14.6464 6.29978 14.6464 8.49988H14.7514H15.6961C16.4309 8.49988 17.7956 9.19988 17.7956 10.5002C17.7956 11.7999 17.0608 12.5002 15.6961 12.5002Z" fill="black"/>
<path fill-rule="evenodd" clip-rule="evenodd" d="M16.3259 7.00008C15.6961 4.50018 13.3867 2.49988 10.4475 2.49988C8.1381 2.49988 6.2486 3.70008 5.1989 5.49988C2.7845 5.79998 1 7.69998 1 9.99988C1 12.5002 3.0995 14.4998 5.7237 14.4998H16.0111C18.2155 14.4998 20 12.8001 20 10.7002C19.895 8.79998 18.2155 7.20008 16.3259 7.00008ZM15.6961 12.5002H5.1989C3.4144 12.5002 2.9945 11.1001 3.0995 9.49998C3.2044 8.19998 4.9889 7.00008 6.2486 7.49998C6.7734 5.79998 8.453 4.50018 10.4475 4.50018C12.8619 4.50018 14.6464 6.29978 14.6464 8.49988H14.7514H15.6961C16.4309 8.49988 17.7956 9.19988 17.7956 10.5002C17.7956 11.7999 17.0608 12.5002 15.6961 12.5002Z" fill="black"/>
</mask>
<g mask="url(#mask0_1_12)">
<rect width="21" height="15" transform="translate(0 0.5)" fill="#B4B4B4"/>
</g>
</svg>
