<svg width="26" height="12" viewBox="0 0 26 12" fill="none" xmlns="http://www.w3.org/2000/svg">
<mask id="mask0_1_478" style="mask-type:alpha" maskUnits="userSpaceOnUse" x="2" y="1" width="22" height="10">
<path d="M18.25 9.00824C16.64 9.00824 15.375 7.68454 15.375 6.00014C15.375 4.29164 16.64 2.99164 18.25 2.99164C19.883 2.99164 21.125 4.29164 21.125 6.00014C21.125 7.68454 19.883 9.00824 18.25 9.00824ZM7.75 9.00824C6.14 9.00824 4.875 7.68454 4.875 6.00014C4.875 4.29164 6.14 2.99164 7.75 2.99164C9.383 2.99164 10.625 4.29164 10.625 6.00014C10.625 7.68454 9.383 9.00824 7.75 9.00824ZM23.2871 5.25414H22.505C22.1831 3.08804 20.435 1.50024 18.25 1.50024C16.479 1.50024 15.007 2.53454 14.34 4.09884C13.1901 3.52144 12.81 3.52144 11.66 4.09884C10.993 2.55874 9.521 1.50024 7.75 1.50024C5.565 1.50024 3.817 3.08804 3.495 5.25414H2.7131C2 5.25414 2 5.25414 2 6.00014C2 6.74604 2 6.74604 2.7131 6.74604H3.495C3.817 8.91144 5.565 10.4999 7.75 10.4999C10.188 10.4999 12.074 8.52684 12.074 5.97624C12.074 5.83174 12.074 5.68724 12.051 5.51884C13.017 5.01334 12.983 5.01334 13.949 5.51884C13.9261 5.68724 13.9261 5.83174 13.9261 5.97624C13.9261 8.52684 15.812 10.4999 18.25 10.4999C20.435 10.4999 22.183 8.91144 22.505 6.74604H23.2871C24 6.74604 24 6.74604 24 6.00014C24 5.25414 24 5.25414 23.2871 5.25414Z" fill="black"/>
<path fill-rule="evenodd" clip-rule="evenodd" d="M18.25 9.00824C16.64 9.00824 15.375 7.68454 15.375 6.00014C15.375 4.29164 16.64 2.99164 18.25 2.99164C19.883 2.99164 21.125 4.29164 21.125 6.00014C21.125 7.68454 19.883 9.00824 18.25 9.00824ZM7.75 9.00824C6.14 9.00824 4.875 7.68454 4.875 6.00014C4.875 4.29164 6.14 2.99164 7.75 2.99164C9.383 2.99164 10.625 4.29164 10.625 6.00014C10.625 7.68454 9.383 9.00824 7.75 9.00824ZM23.2871 5.25414H22.505C22.1831 3.08804 20.435 1.50024 18.25 1.50024C16.479 1.50024 15.007 2.53454 14.34 4.09884C13.1901 3.52144 12.81 3.52144 11.66 4.09884C10.993 2.55874 9.521 1.50024 7.75 1.50024C5.565 1.50024 3.817 3.08804 3.495 5.25414H2.7131C2 5.25414 2 5.25414 2 6.00014C2 6.74604 2 6.74604 2.7131 6.74604H3.495C3.817 8.91144 5.565 10.4999 7.75 10.4999C10.188 10.4999 12.074 8.52684 12.074 5.97624C12.074 5.83174 12.074 5.68724 12.051 5.51884C13.017 5.01334 12.983 5.01334 13.949 5.51884C13.9261 5.68724 13.9261 5.83174 13.9261 5.97624C13.9261 8.52684 15.812 10.4999 18.25 10.4999C20.435 10.4999 22.183 8.91144 22.505 6.74604H23.2871C24 6.74604 24 6.74604 24 6.00014C24 5.25414 24 5.25414 23.2871 5.25414Z" fill="black"/>
<path fill-rule="evenodd" clip-rule="evenodd" d="M18.25 9.00824C16.64 9.00824 15.375 7.68454 15.375 6.00014C15.375 4.29164 16.64 2.99164 18.25 2.99164C19.883 2.99164 21.125 4.29164 21.125 6.00014C21.125 7.68454 19.883 9.00824 18.25 9.00824ZM7.75 9.00824C6.14 9.00824 4.875 7.68454 4.875 6.00014C4.875 4.29164 6.14 2.99164 7.75 2.99164C9.383 2.99164 10.625 4.29164 10.625 6.00014C10.625 7.68454 9.383 9.00824 7.75 9.00824ZM23.2871 5.25414H22.505C22.1831 3.08804 20.435 1.50024 18.25 1.50024C16.479 1.50024 15.007 2.53454 14.34 4.09884C13.1901 3.52144 12.81 3.52144 11.66 4.09884C10.993 2.55874 9.521 1.50024 7.75 1.50024C5.565 1.50024 3.817 3.08804 3.495 5.25414H2.7131C2 5.25414 2 5.25414 2 6.00014C2 6.74604 2 6.74604 2.7131 6.74604H3.495C3.817 8.91144 5.565 10.4999 7.75 10.4999C10.188 10.4999 12.074 8.52684 12.074 5.97624C12.074 5.83174 12.074 5.68724 12.051 5.51884C13.017 5.01334 12.983 5.01334 13.949 5.51884C13.9261 5.68724 13.9261 5.83174 13.9261 5.97624C13.9261 8.52684 15.812 10.4999 18.25 10.4999C20.435 10.4999 22.183 8.91144 22.505 6.74604H23.2871C24 6.74604 24 6.74604 24 6.00014C24 5.25414 24 5.25414 23.2871 5.25414Z" fill="black"/>
</mask>
<g mask="url(#mask0_1_478)">
<rect width="26" height="11" transform="translate(0 0.5)" fill="#27282D"/>
</g>
</svg>
