<svg width="24" height="14" viewBox="0 0 24 14" fill="none" xmlns="http://www.w3.org/2000/svg">
<mask id="mask0_1_204" style="mask-type:alpha" maskUnits="userSpaceOnUse" x="3" y="3" width="18" height="7">
<mask id="path-1-inside-1_1_204" fill="white">
<path fill-rule="evenodd" clip-rule="evenodd" d="M3.57397 9.0122C4.45294 5.85507 7.89203 3.5 12.0005 3.5C16.1063 3.5 19.5436 5.85168 20.4254 9.00597"/>
</mask>
<path fill-rule="evenodd" clip-rule="evenodd" d="M3.57397 9.0122C4.45294 5.85507 7.89203 3.5 12.0005 3.5C16.1063 3.5 19.5436 5.85168 20.4254 9.00597" fill="black"/>
<path d="M5.5007 9.54861C6.08367 7.45464 8.56626 5.5 12.0005 5.5V1.5C7.2178 1.5 2.82221 4.25549 1.64725 8.47579L5.5007 9.54861ZM12.0005 5.5C15.4324 5.5 17.9142 7.45183 18.4992 9.54445L22.3515 8.4675C21.1729 4.25153 16.7802 1.5 12.0005 1.5V5.5Z" fill="white" mask="url(#path-1-inside-1_1_204)"/>
</mask>
<g mask="url(#mask0_1_204)">
<mask id="path-3-inside-2_1_204" fill="white">
<path fill-rule="evenodd" clip-rule="evenodd" d="M3.57397 9.0122C4.45294 5.85507 7.89203 3.5 12.0005 3.5C16.1063 3.5 19.5436 5.85168 20.4254 9.00597"/>
</mask>
<path d="M5.5007 9.54861C6.08367 7.45464 8.56626 5.5 12.0005 5.5V1.5C7.2178 1.5 2.82221 4.25549 1.64725 8.47579L5.5007 9.54861ZM12.0005 5.5C15.4324 5.5 17.9142 7.45183 18.4992 9.54445L22.3515 8.4675C21.1729 4.25153 16.7802 1.5 12.0005 1.5V5.5Z" fill="white" mask="url(#path-3-inside-2_1_204)"/>
</g>
<mask id="mask1_1_204" style="mask-type:alpha" maskUnits="userSpaceOnUse" x="9" y="7" width="6" height="6">
<path fill-rule="evenodd" clip-rule="evenodd" d="M12 7.50012C13.3808 7.50012 14.5 8.61932 14.5 10C14.5 11.3807 13.3808 12.4999 12 12.4999C10.6193 12.4999 9.5 11.3807 9.5 10C9.5 8.61932 10.6193 7.50012 12 7.50012Z" fill="black"/>
</mask>
<g mask="url(#mask1_1_204)">
<rect width="7" height="7" transform="translate(8.5 6.5)" fill="white"/>
</g>
</svg>
