<?xml version="1.0" standalone="no"?>
<!DOCTYPE svg PUBLIC "-//W3C//DTD SVG 20010904//EN"
 "http://www.w3.org/TR/2001/REC-SVG-20010904/DTD/svg10.dtd">
<svg version="1.0" xmlns="http://www.w3.org/2000/svg"
 width="16.000000pt" height="16.000000pt" viewBox="0 0 16.000000 16.000000"
 preserveAspectRatio="xMidYMid meet">

<g transform="translate(0.000000,16.000000) scale(0.100000,-0.100000)"
fill="#000000" stroke="none">
<path d="M0 146 c0 -10 11 -19 31 -23 39 -7 85 -53 92 -92 4 -18 13 -31 22
-31 35 0 0 87 -50 125 -42 33 -95 44 -95 21z"/>
<path d="M0 86 c0 -8 12 -17 26 -20 16 -4 30 -18 37 -36 11 -28 37 -42 37 -20
0 24 -30 67 -55 78 -34 16 -45 15 -45 -2z"/>
<path d="M4 29 c-3 -6 -2 -15 4 -21 13 -13 32 -2 32 18 0 16 -26 19 -36 3z"/>
</g>
</svg>
